REM DIRINDEX 1\2,1\3,1\4,1\6,1\5\7,1\5\8
REM DIRNAME folder01,folder02,folder03,folder04,folder05,folder06,folder07,folder08
TITLE ""
FILE "DB4500_5th_2A_31.mp3" MP3
  TRACK 01 AUDIO
    TITLE "0:"
    INDEX 01 00:00:00
  TRACK 02 AUDIO
    TITLE "2:cjc114_0966"
    INDEX 01 00:00:03
  TRACK 03 AUDIO
    TITLE "0:"
    INDEX 01 00:01:11
  TRACK 04 AUDIO
    TITLE "3:cjc114_0967"
    INDEX 01 00:01:32
  TRACK 05 AUDIO
    TITLE "0:"
    INDEX 01 00:02:42
  TRACK 06 AUDIO
    TITLE "4:cjc114_0968"
    INDEX 01 00:02:67
  TRACK 07 AUDIO
    TITLE "0:"
    INDEX 01 00:05:30
  TRACK 08 AUDIO
    TITLE "2:cjc114_0969"
    INDEX 01 00:06:10
  TRACK 09 AUDIO
    TITLE "0:"
    INDEX 01 00:07:23
  TRACK 10 AUDIO
    TITLE "3:cjc114_0970"
    INDEX 01 00:07:52
  TRACK 11 AUDIO
    TITLE "0:"
    INDEX 01 00:08:68
  TRACK 12 AUDIO
    TITLE "4:cjc114_0971"
    INDEX 01 00:09:22
  TRACK 13 AUDIO
    TITLE "0:"
    INDEX 01 00:12:30
  TRACK 14 AUDIO
    TITLE "2:cjc114_0972"
    INDEX 01 00:13:08
  TRACK 15 AUDIO
    TITLE "0:"
    INDEX 01 00:14:13
  TRACK 16 AUDIO
    TITLE "3:cjc114_0973"
    INDEX 01 00:14:39
  TRACK 17 AUDIO
    TITLE "0:"
    INDEX 01 00:15:40
  TRACK 18 AUDIO
    TITLE "4:cjc114_0974"
    INDEX 01 00:15:68
  TRACK 19 AUDIO
    TITLE "0:"
    INDEX 01 00:18:29
  TRACK 20 AUDIO
    TITLE "2:cjc114_0975"
    INDEX 01 00:19:07
  TRACK 21 AUDIO
    TITLE "0:"
    INDEX 01 00:20:08
  TRACK 22 AUDIO
    TITLE "3:cjc114_0976"
    INDEX 01 00:20:37
  TRACK 23 AUDIO
    TITLE "0:"
    INDEX 01 00:21:45
  TRACK 24 AUDIO
    TITLE "4:cjc114_0977"
    INDEX 01 00:21:68
  TRACK 25 AUDIO
    TITLE "0:"
    INDEX 01 00:24:33
  TRACK 26 AUDIO
    TITLE "2:cjc114_0978"
    INDEX 01 00:25:13
  TRACK 27 AUDIO
    TITLE "0:"
    INDEX 01 00:26:09
  TRACK 28 AUDIO
    TITLE "3:cjc114_0979"
    INDEX 01 00:26:38
  TRACK 29 AUDIO
    TITLE "0:"
    INDEX 01 00:27:45
  TRACK 30 AUDIO
    TITLE "4:cjc114_0980"
    INDEX 01 00:27:73
  TRACK 31 AUDIO
    TITLE "0:"
    INDEX 01 00:30:54
  TRACK 32 AUDIO
    TITLE "2:cjc114_0981"
    INDEX 01 00:31:29
  TRACK 33 AUDIO
    TITLE "0:"
    INDEX 01 00:32:27
  TRACK 34 AUDIO
    TITLE "3:cjc114_0982"
    INDEX 01 00:32:54
  TRACK 35 AUDIO
    TITLE "0:"
    INDEX 01 00:34:20
  TRACK 36 AUDIO
    TITLE "4:cjc114_0983"
    INDEX 01 00:34:51
  TRACK 37 AUDIO
    TITLE "0:"
    INDEX 01 00:37:36
  TRACK 38 AUDIO
    TITLE "2:cjc114_0984"
    INDEX 01 00:38:16
  TRACK 39 AUDIO
    TITLE "0:"
    INDEX 01 00:39:15
  TRACK 40 AUDIO
    TITLE "3:cjc114_0985"
    INDEX 01 00:39:47
  TRACK 41 AUDIO
    TITLE "0:"
    INDEX 01 00:40:54
  TRACK 42 AUDIO
    TITLE "4:cjc114_0986"
    INDEX 01 00:41:04
  TRACK 43 AUDIO
    TITLE "0:"
    INDEX 01 00:44:09
  TRACK 44 AUDIO
    TITLE "2:cjc114_0987"
    INDEX 01 00:44:54
  TRACK 45 AUDIO
    TITLE "0:"
    INDEX 01 00:45:59
  TRACK 46 AUDIO
    TITLE "3:cjc114_0988"
    INDEX 01 00:46:06
  TRACK 47 AUDIO
    TITLE "0:"
    INDEX 01 00:47:30
  TRACK 48 AUDIO
    TITLE "4:cjc114_0989"
    INDEX 01 00:47:56
  TRACK 49 AUDIO
    TITLE "0:"
    INDEX 01 00:51:62
  TRACK 50 AUDIO
    TITLE "4:cjc114_0990"
    INDEX 01 00:52:32
  TRACK 51 AUDIO
    TITLE "0:"
    INDEX 01 00:55:04
  TRACK 52 AUDIO
    TITLE "2:cjc114_0991"
    INDEX 01 00:55:48
  TRACK 53 AUDIO
    TITLE "0:"
    INDEX 01 00:56:59
  TRACK 54 AUDIO
    TITLE "3:cjc114_0992"
    INDEX 01 00:57:03
  TRACK 55 AUDIO
    TITLE "0:"
    INDEX 01 00:58:46
  TRACK 56 AUDIO
    TITLE "4:cjc114_0993"
    INDEX 01 00:58:66
  TRACK 57 AUDIO
    TITLE "0:"
    INDEX 01 01:02:46
  TRACK 58 AUDIO
    TITLE "2:cjc114_0994"
    INDEX 01 01:03:20
  TRACK 59 AUDIO
    TITLE "0:"
    INDEX 01 01:04:37
  TRACK 60 AUDIO
    TITLE "3:cjc114_0995"
    INDEX 01 01:04:60
  TRACK 61 AUDIO
    TITLE "0:"
    INDEX 01 01:06:18
  TRACK 62 AUDIO
    TITLE "4:cjc114_0996"
    INDEX 01 01:06:42
  TRACK 63 AUDIO
    TITLE "0:"
    INDEX 01 01:10:22
  TRACK 64 AUDIO
    TITLE "2:cjc114_0997"
    INDEX 01 01:10:67
  TRACK 65 AUDIO
    TITLE "0:"
    INDEX 01 01:11:70
  TRACK 66 AUDIO
    TITLE "3:cjc114_0998"
    INDEX 01 01:12:19
  TRACK 67 AUDIO
    TITLE "0:"
    INDEX 01 01:13:38
  TRACK 68 AUDIO
    TITLE "4:cjc114_0999"
    INDEX 01 01:13:59
  TRACK 69 AUDIO
    TITLE "0:"
    INDEX 01 01:18:37
  TRACK 70 AUDIO
    TITLE "2:cjc114_1000"
    INDEX 01 01:19:09
  TRACK 71 AUDIO
    TITLE "0:"
    INDEX 01 01:20:04
  TRACK 72 AUDIO
    TITLE "3:cjc114_1001"
    INDEX 01 01:20:28
  TRACK 73 AUDIO
    TITLE "0:"
    INDEX 01 01:21:55
  TRACK 74 AUDIO
    TITLE "4:cjc114_1002"
    INDEX 01 01:22:03
  TRACK 75 AUDIO
    TITLE "0:"
    INDEX 01 01:25:11
